<?xml version="1.0" encoding="UTF-8"?>
<!-- Created with Inkscape (http://www.inkscape.org/) -->
<svg width="95.851mm" height="4.2165mm" version="1.1" viewBox="0 0 95.851 4.2165" xmlns="http://www.w3.org/2000/svg" xmlns:cc="http://creativecommons.org/ns#" xmlns:dc="http://purl.org/dc/elements/1.1/" xmlns:rdf="http://www.w3.org/1999/02/22-rdf-syntax-ns#">
 <title>ligne</title>
 <metadata>
  <rdf:RDF>
   <cc:Work rdf:about="">
    <dc:format>image/svg+xml</dc:format>
    <dc:type rdf:resource="http://purl.org/dc/dcmitype/StillImage"/>
    <dc:title>ligne</dc:title>
   </cc:Work>
  </rdf:RDF>
 </metadata>
 <g transform="translate(-29.8 -103.75)">
  <path transform="scale(.26458)" d="m193.55 392.11c-1.068-5e-3 -2.1358-1e-3 -3.2051 0.0137-17.336 0.031-34.672-0.0138-52.008 0.14453-7.7548 0.21827-15.508 0.56271-23.219 1.459l-0.22852 0.16601c-0.0105 0.0258-0.0321 0.0574-0.0332 0.0879-4.9e-4 0.0151-1e-4 0.0267 2e-3 0.041 0.0166 0.13455-0.0348 0.26163-0.0606 0.39062-8.2e-4 0.0548 0.01 0.10874 0.01 0.16406-2e-3 0.0427-2e-3 0.0842-2e-3 0.12696 6.8e-4 1e-3 -6.6e-4 3e-3 0 4e-3 0.0371 0.0674 0.041 0.13994 0.0351 0.21485-1e-3 0.0151-5e-3 0.0299-4e-3 0.0469 6.3e-4 8e-3 4e-3 -0.0178 6e-3 -0.0254 0.0383 0.0556 0.0264 0.12161 0.0332 0.1836 2e-3 0.0189 0.0134 0.0329 0.0176 0.0488 4e-3 0.0151 6e-3 0.0297 0.01 0.043 0.0418 0.068 0.0287 0.14776 0.0352 0.22071 3e-3 0.0382 0.0215 0.0731 0.0332 0.10937 0.0174 0.1028 0.0544 0.19842 0.0645 0.30274 5e-3 0.0533-0.011 0.10535 0.0234 0.14843 0.0731 0.0794 0.0568 0.1627 0.0859 0.25 9e-3 0.0265 0.023 0.0536 0.0332 0.0801 0.0166 0.0673 0.0229 0.1378 0.0391 0.20508 2e-3 8e-3 7e-3 0.01 0.01 0.0176 0.0208 0.0593 0.0202 0.0669 0.0293 0.1289 3e-3 -0.0264-1e-3 -7e-3 0.0137 0.0156 1e-3 2e-3 -1.6e-4 -4e-3 0-8e-3 0.01 0.0189 0.0225 0.0354 0.0293 0.0547 0.0276 0.0748-1.2e-4 0.097 0.0234 0.0762 3e-5 8e-5 2e-3 0.0221 0.01 0.0469 3e-3 5e-3 9e-3 5e-3 0.0117 8e-3 0.0374 0.0435 1e-3 -0.0123 0.0566 0.0859 8e-3 0.0559 0.0552 0.0932 0.0684 0.14649 0.0124 0.0505 0.0194 0.11359 0.0293 0.16992 0.0106 7.9e-4 0.0115 0.0198 0.0176 0.0273 0.0419 0.0574 0.0637 0.12211 0.0918 0.1875 2e-3 8e-3 0.0373 0.1056 0.0449 0.12109 3e-3 4e-3 8e-3 8e-3 0.0117 0.0156 4e-3 6e-3 8e-3 0.0125 0.0117 0.0195 0.0199 0.0122 0.0482 0.0458 0.0605 0.0762 0.0119 4e-3 0.0273 0.0132 0.041 0.0215 0.0925 0.10507 0.0779 0.0651 0.11719 0.18945 6e-3 0.0189 8e-3 0.0421 0.0156 0.0625 2e-3 4e-3 -3e-3 -0.0194 0-0.0156 7e-3 0.01 0.0108 0.0206 0.0156 0.0312 0.034 0.0408 0.0633 0.076 0.0801 0.12891 8e-3 0.0265 6e-3 0.0521 0.0117 0.0781 5e-4 2e-3 3e-3 -8e-3 4e-3 -4e-3 7e-3 0.0227 0.0123 0.0457 0.0176 0.0684 0.0374 0.10923-9e-3 -0.0154 0.0527 0.10937 0.0159 0.034 0.028 0.0663 0.043 0.0996 0.023 0.0507 0.0497 0.0963 0.0703 0.14844 0.0191 0.21116 0.0125 0.0829 0.0117 0.043 9e-3 0.0121 0.0195 0.0166 0.0273 0.0273 0.0185 0.0227 0.0327 0.0521 0.0488 0.0781 0.0219 0.0544 0.043 0.10785 0.0684 0.16015 9.9e-4 2e-3 4e-3 3e-3 6e-3 4e-3 8e-3 0.0151 0.0185 0.0299 0.0234 0.0488 4e-3 0.0161 0.01 0.0328 0.0117 0.0488 0.0159 0.0105 0.0335 0.0165 0.0469 0.0273 0.0242 0.0227 0.0446 0.0512 0.0664 0.0762 2e-4 4.9e-4 0.0416 0.10031 0.0547 0.1211 4e-3 8e-3 0.0106 8e-3 0.0137 0.0156 5e-3 9e-3 0.0109 0.0195 0.0156 0.0293 0.0642 0.0154 0.12013 0.0345 0.16992 0.11133 0.011 0.0176 0.0132 0.0387 0.0176 0.0586 0.07 0.0279 0.11546 0.0708 0.14844 0.12891 4.1226-0.31716 8.2508-0.56322 12.385-0.74024 17.519-0.59815 35.053-0.59413 52.58-0.60547 17.041-0.11316 33.917 2.2061 50.842 3.791 17.883 1.6281 35.843 1.973 53.787 2.2168 13.954-0.07 27.873 0.25085 41.793 1.1934 13.081 0.78636 26.138 1.8436 39.234 2.3906 14.05 0.47433 28.147-0.0583 42.17-0.99805 0.91669-0.0927 1.8293-0.19763 2.7422-0.31054 0.0519-0.0157 0.0971-0.0347 0.15234-0.0488 0.19918-0.051 0.39825-0.10145 0.59766-0.15234 0.18973-0.0302 0.38304-0.0448 0.57031-0.0879 0.0189-4e-3 0.0103-0.0394 0.0254-0.0488 0.0597-0.0378 0.12646-0.0643 0.19336-0.084 0.0706-0.021 0.19731-0.0697 0.30469-0.10742 0.20342-0.13496 0.39306-0.21422 0.86914-0.25977 0.20976-0.0189 0.42091 0.0183 0.63086-2e-3 0.0435-4e-3 0.12046-0.0233 0.11328-0.0664-8e-3 -0.0431-0.16318-3e-3 -0.125-0.0254 0.24945-0.13795 0.52121-0.22526 0.7832-0.33789 0.20258-0.037 0.12835-0.0234 0.19141-0.0351 0.01-8e-3 0.0211-0.0172 0.0312-0.0254 0.0939-0.0795 0.22067-0.0916 0.33203-0.13477 0.0125-0.0221 0.0251-0.0401 0.043-0.0566 5e-4 -1e-3 0.0107-3e-3 0.0117-4e-3h0.0117c0.0106-9e-3 0.0126-0.0278 0.0254-0.0332 0.019-8e-3 0.0395-0.012 0.0586-0.0195 9e-3 -6e-3 0.0158-0.0129 0.0254-0.0176 0.0427-0.0189 0.089-0.0302 0.13281-0.0469 0.1028-0.042 0.19357-0.11204 0.28126-0.17969-4e-3 -3e-3 -0.0152-4e-3 -0.0117-8e-3 0.11679-0.11679 0.0705-0.0633 0.21679-0.0977 0.0227-4e-3 0.0398-0.0276 0.0625-0.0352 0.0227-8e-3 0.05-0.01 0.0742-0.0137 0.0816-0.0571 0.17679-0.0678 0.27344-0.0664 0.0513-7.7e-4 0.11022 9e-3 0.1582 2e-3 0.0294-2e-3 0.0586-4e-3 0.0879-6e-3 0.0305-0.0245 0.0681-0.0382 0.10352-0.0566 4e-3 -2e-3 -0.0174 1e-3 -0.0137-4e-3 3e-3 -4e-3 0.0915-0.0747 0.0957-0.0781 0.11074-0.13077 0.2709-0.18765 0.38867-0.3086 7e-3 -4e-3 0.10901-0.0719 0.13477-0.0859-0.10263 0.0576-0.20328 0.12017-0.3086 0.16211 0.12698-0.11906 0.23263-0.26596 0.38086-0.35743 0.16993-0.10492 0.37296-0.15302 0.5586-0.22851 0.0746-0.073 0.15788-0.12456 0.2539-0.14258 2e-3 -2e-3 6e-3 -2e-3 8e-3 -4e-3 0.0227-0.0189 0.0244-0.0485 0.0391-0.0723 0.0691-0.0412 0.14049-0.0792 0.20898-0.12305 0.0665-0.10172 0.17429-0.17691 0.28516-0.2207 0.0113-4e-3 -0.0406 0.0232-0.0352 0.0156 0.0113-0.0189 0.0349-0.0255 0.0508-0.041-8e-3 2e-3 -0.0233 0.01-0.0195 2e-3 0.0265-0.034 0.0627-0.0597 0.0918-0.0918 0.0189-0.0189 0.0269-0.0447 0.0488-0.0605 0.085-0.0658 0.19131-0.0945 0.28125-0.15235 0.26608-0.0884-0.0228 0.0165 0.21875-0.0976 0.0476-0.0227 0.0992-0.0353 0.14648-0.0605 0.0343-0.017 0.0628-0.0443 0.0957-0.0645 0.11503-0.14026 0.24719-0.26277 0.40429-0.35352 0.0127-0.0152 0.0275-0.029 0.0391-0.0449 8e-3 -0.0113 0.012-0.0279 0.0195-0.043 0.0189-0.0189 0.0374-0.0386 0.0566-0.0586 9.5e-4 -4e-3 -1e-3 -8e-3 2e-3 -0.0117 0.1047-0.0896 0.0346-0.0197 0.12305-0.082 0.13115-0.0922-0.0194 2e-3 0.125-0.11133 0.0265-0.0227 0.0592-0.0369 0.0879-0.0547 0.0378-0.0658 0.12439-0.0885 0.1875-0.11719 0.22299-0.10053-0.15613 0.0505 0.13867-0.0645-1e-3 -0.0401 0.066-0.0599 0.0879-0.0879 0.0673-0.0854-0.16162 0.0712 0.0625-0.0879 0.034-0.0227 0.0739-0.0393 0.11133-0.0586 0.0258-3e-3 0.0451-0.0165 0.0684-0.0234-0.0204 0.0123-0.0887 0.065 0.0996-0.0937 0.0261-0.0221 0.0787-0.0218 0.125-0.0371l6e-3 -6e-3c0.0227-0.0227 0.0398-0.0515 0.0625-0.0742 0.0672-0.0667 0.10802-0.0823 0.16015-0.11133 0.0393-0.0409 0.0786-0.0817 0.0977-0.10742 0.0264-0.034 0.0427-0.0737 0.0703-0.10547 0.0752-0.0858 0.15929-0.1637 0.23828-0.24609 0.24605-0.27553 0.52017-0.52282 0.76758-0.79688 0.0771-0.0855 0.14955-0.17592 0.22266-0.26562-2.1218 0.33851-4.2476 0.66029-6.3887 0.9082-14.019 1.0382-28.125 1.588-42.178 1.1562-13.01-0.57105-25.976-1.649-38.963-2.5606-14.107-0.80501-28.203-1.0002-42.334-0.86718-17.913-0.21857-35.844-0.56356-53.697-2.1738-15.919-1.5625-31.798-3.7265-47.818-3.8008zm-80.895 3.4082-0.0273 0.0195v0.10156c6e-3 -0.0404 0.0161-0.0808 0.0273-0.12109zm1.8223 0.50977c0.011-8e-3 -0.0234 0.0138-0.0352 0.0176 5e-3 -1.2e-4 0.0106-2e-3 0.0156-2e-3 8e-3 -5e-3 0.0113-9e-3 0.0195-0.0156zm-1.3457 0.50976-2e-3 2e-3c-4.3e-4 7e-3 -2e-3 0.0108 0 0.0176 9e-4 3e-3 3e-3 3e-3 4e-3 6e-3 -3.9e-4 -9e-3 3.6e-4 -0.0171-2e-3 -0.0254zm-0.50391 0.01v0.2539c4e-3 9e-3 6e-3 0.0239 0.01 0.0332 3e-3 -5e-3 7e-3 -9e-3 0.01-0.0137 2e-3 -0.0121 0.0123-0.0199 0.0156-0.0312-0.0268-0.0618-0.0416-0.13784-0.0352-0.24219zm0.48047 0.0371c4e-3 6e-3 8e-3 0.0118 0.0117 0.0176 2e-3 -6.2e-4 0.0114-7e-3 0.0137-8e-3 -5e-3 -1e-3 -0.023-9e-3 -0.0254-0.01zm-0.3457 0.53515c-4e-3 -3e-3 0.0132 0.0591-6e-3 0.0527-5e-3 -2e-3 -8e-3 -0.0195-0.0137-0.0254l-2e-3 2e-3c6e-3 0.0196 0.0137 0.0315 0.0195 0.0508 1e-3 -0.0273 9e-3 -0.0649 2e-3 -0.0801zm-0.13477 0.2793v0.0273c8e-3 9e-3 0.0142 0.0153 0.0234 0.0254-9e-3 -0.0188-0.014-0.034-0.0234-0.0527zm2.6016 0.041c5.4e-4 8e-3 0.01 0.0194 8e-3 0.0156 5e-3 3e-3 9e-3 8e-3 0.0137 0.0117-4e-3 -5e-3 -6e-3 -0.0141-0.01-0.0195l-2e-3 -2e-3c-4e-3 -3e-3 -0.01-9e-3 -0.01-6e-3zm-1.7188 0.30078c-2e-3 1e-3 1e-3 -1e-3 -4e-3 4e-3 1e-3 3e-3 3e-3 7e-3 4e-3 0.01zm-0.14648 0.55078c-4e-3 3e-3 -9e-3 5e-3 -0.0273 4e-3 8e-3 7.3e-4 0.0169 3e-3 0.0254 4e-3 3.8e-4 -3e-3 -3.5e-4 -5e-3 2e-3 -8e-3zm0.15234 0.37109c0.0107 0.022 0.0209 0.0444 0.0312 0.0664 5.8e-4 -6e-3 3e-5 -0.0103 0-0.0156-4e-3 -8e-3 -5e-3 -0.0155-0.01-0.0234-4e-3 -8e-3 -5e-3 -0.0197-0.0117-0.0234-3e-3 -2e-3 -7e-3 -2e-3 -0.01-4e-3zm315.51 0.13477c-8e-3 1e-3 -0.0156 3e-3 -0.0234 4e-3 -8e-3 0.0123-6e-3 0.0226-0.0156 0.0352-9e-3 0.0123-0.0182 0.0248-0.0273 0.0371 4e-3 -3e-3 9e-3 -6e-3 0.0137-0.01 0.0202-0.0179 0.036-0.0428 0.0527-0.0664zm-313.05 0.0976c0.0117 0.0287 0.0218 0.0581 0.0352 0.0859 0.01 0.0198 0.0218 0.038 0.0332 0.0566-0.01-0.0214-0.0199-0.043-0.0293-0.0645-6e-3 -0.0113-9e-3 -0.0262-0.0137-0.0391 9e-3 -8e-3 4e-3 -4e-3 -0.01-0.0195-5e-3 -6e-3 -0.0103-0.0132-0.0156-0.0195zm311.96 0.0801c-0.015 2e-3 -0.0299 5e-3 -0.0449 8e-3 -0.0228 0.024-8e-3 0.0148-0.043 0.0488-0.0398 0.0434-0.0796 0.087-0.11914 0.13086 0.0259-0.0227 0.0535-0.0379 0.082-0.0449 9e-3 -0.012 0.0174-0.0238 0.0274-0.0352 0.0189-0.0227 0.0429-0.0377 0.0644-0.0566 0.0171-0.0151 0.0196-0.0358 0.0332-0.0508zm-311.55 0.0957c6e-4 4e-3 1.2e-4 9e-3 2e-3 0.0137-0.01-0.0612 0.0193 0.0214 0.0137 0.0176-8e-3 -9e-3 -0.0109-0.0206-0.0156-0.0312zm0.20899 0.29492c2e-3 4e-3 4e-3 8e-3 6e-3 0.0117 1e-3 2e-3 2e-3 -8e-3 0-8e-3 -2e-3 -2e-3 -4e-3 -2e-3 -6e-3 -4e-3zm0.12109 0.0605c-0.0143-7.3e-4 -0.0273 0.0168-0.0391 0.043 0.0155 5.5e-4 0.031-4e-3 0.0469 2e-3 0.0195 6e-3 0.0252 0.0152 0.041 0.0215-0.019-0.0466-0.0345-0.0657-0.0488-0.0664zm308.64 0.24024c-0.0228 0.0267-0.0461 0.053-0.0684 0.0801 0.0116-6e-3 0.0232-0.012 0.0352-0.0176 0.0106-0.0211 0.0221-0.0423 0.0332-0.0625zm-0.15234 0.18164c-3e-3 3e-3 -5e-3 7e-3 -8e-3 0.01 1e-3 -5.7e-4 2e-3 -1e-3 4e-3 -2e-3 1e-3 -3e-3 3e-3 -5e-3 4e-3 -8e-3zm49.686 0.43359c-0.40268 0.33838-0.81344 0.66657-1.2168 1.0039 0.0337 0.17117 0.0481 0.36677 0.0645 0.56055 0.3845-0.42692 0.70318-0.82053 1.1523-1.5645zm-49.32 0.52735c-0.0328 0.0953-0.0853 0.16071-0.14258 0.23047 0.0719-0.0536 0.14256-0.10904 0.21485-0.16211-0.019 8e-3 -0.032 0.0216-0.0527 0.0273-0.0189 2e-3 -0.0405 0.0142-0.0586 8e-3 -2e-3 -1e-3 0.0561-0.1534 0.0391-0.10351zm-1.2773 0.0684c-0.026 7e-3 -0.0454 0.0138-0.0723 0.0215-0.0549 0.0526-0.12195 0.13189-0.13281 0.15234 0.0121-9e-3 0.0234-0.0168 0.0352-0.0254 0.015-0.0482 0.0532-0.0868 0.15039-0.13672 6e-3 -2e-3 0.0116-6e-3 0.0156-8e-3 3e-3 -3e-3 7.1e-4 -5.5e-4 4e-3 -4e-3zm-0.19922 0.22265c-6e-3 5e-3 -0.014 8e-3 -0.0176 0.0137-3e-3 3e-3 9.1e-4 5e-3 0 0.0117 3e-3 -1e-3 6e-3 -3e-3 0.01-4e-3 2e-3 -4e-3 4e-3 -0.0117 8e-3 -0.0215zm-1.4688 0.72852c-1e-3 6e-4 -3e-3 9e-4 -4e-3 2e-3v2e-3c-9.3e-4 0.0182-8e-3 0.0462-4e-3 0.0352 3e-3 -0.0127 5e-3 -0.026 8e-3 -0.0391zm1.5762 0.0312c-0.0199 0.0179-0.0426 0.036-0.0606 0.0488-6e-4 0.0392-0.0121 0.0751-0.01 0.11523 0.01-7e-3 0.0197-0.0141 0.0293-0.0215-0.0103-0.0398 0.0135-0.0905 0.041-0.14258zm-2.8223 0.93945c-0.0492 0.0294-0.045 0.0415-0.15624 0.0703-0.0302 0.0189-0.06 0.0384-0.0918 0.0547-0.0265 0.0151-0.0568 0.0258-0.0859 0.0371-0.0189 8e-3 -0.0411 4e-3 -0.0566 0.0195-0.01 7e-3 -0.016 0.0179-0.0234 0.0274 0.0395-0.0198 0.077-0.0443 0.10352-0.0547 0.0876-0.0344 0.15365-0.0486 0.22461-0.0684 0.0161-0.0103 0.0325-0.0194 0.0488-0.0293 0.01-0.0205 0.0265-0.0365 0.0371-0.0566z"/>
 </g>
</svg>
