<?xml version="1.0" encoding="UTF-8" standalone="no"?>
<!-- Created with Inkscape (http://www.inkscape.org/) -->

<svg
   xmlns:dc="http://purl.org/dc/elements/1.1/"
   xmlns:cc="http://creativecommons.org/ns#"
   xmlns:rdf="http://www.w3.org/1999/02/22-rdf-syntax-ns#"
   xmlns:svg="http://www.w3.org/2000/svg"
   xmlns="http://www.w3.org/2000/svg"
   xmlns:sodipodi="http://sodipodi.sourceforge.net/DTD/sodipodi-0.dtd"
   xmlns:inkscape="http://www.inkscape.org/namespaces/inkscape"
   width="102.29932mm"
   height="99.658737mm"
   viewBox="0 0 102.29932 99.658737"
   version="1.1"
   id="svg8"
   inkscape:version="0.92.4 (5da689c313, 2019-01-14)"
   sodipodi:docname="note_icone.svg">
  <defs
     id="defs2" />
  <sodipodi:namedview
     id="base"
     pagecolor="#ffffff"
     bordercolor="#666666"
     borderopacity="1.0"
     inkscape:pageopacity="0.0"
     inkscape:pageshadow="2"
     inkscape:zoom="0.7"
     inkscape:cx="260.51654"
     inkscape:cy="100.54165"
     inkscape:document-units="mm"
     inkscape:current-layer="layer1"
     showgrid="false"
     fit-margin-top="0"
     fit-margin-left="0"
     fit-margin-right="0"
     fit-margin-bottom="0"
     inkscape:window-width="1366"
     inkscape:window-height="705"
     inkscape:window-x="-8"
     inkscape:window-y="-8"
     inkscape:window-maximized="1" />
  <metadata
     id="metadata5">
    <rdf:RDF>
      <cc:Work
         rdf:about="">
        <dc:format>image/svg+xml</dc:format>
        <dc:type
           rdf:resource="http://purl.org/dc/dcmitype/StillImage" />
        <dc:title></dc:title>
      </cc:Work>
    </rdf:RDF>
  </metadata>
  <g
     inkscape:label="Calque 1"
     inkscape:groupmode="layer"
     id="layer1"
     transform="translate(-87.281248,-57.584434)">
    <path
       style="fill:none;stroke:#000000;stroke-width:0.26458332px;stroke-linecap:butt;stroke-linejoin:miter;stroke-opacity:1"
       d="m 189.44823,74.842038 -2.35956,54.312702 c 0.41281,6.31546 -0.90744,11.15822 -4.52617,16.4658 -10.27606,5.59591 -20.0833,1.56835 -23.83937,0.23484 -4.77785,-4.21781 -3.79285,-2.90874 -6.31488,-7.51366 -1.85712,-5.18019 1.45174,-10.7382 12.0114,-14.83279 7.47861,-1.31695 12.59686,-0.58718 14.36309,0 l 1.5119,-35.529764 c -16.14955,1.744186 -32.66554,2.205833 -47.46843,8.663332 l -5.31854,28.451052 -4.06602,23.07555 c -3.57165,8.44664 -8.27507,7.74932 -11.86596,8.94172 -7.89661,-0.0206 -14.408947,-1.45076 -18.807093,-4.04703 -5.132975,-3.70967 -5.565588,-7.95387 -5.199954,-11.66354 -1.297991,-4.53049 5.955907,-8.52116 5.955907,-8.52116 3.88584,-1.13361 5.766481,-2.06712 12.27405,-1.88987 3.86996,1.33372 7.56146,1.86564 10.01081,3.19936 l 7.03285,-45.075485 2.26786,-16.252976 c 19.77469,-9.093567 42.31139,-11.376224 64.25595,-15.119048 l 0.0822,17.100967"
       id="path10"
       inkscape:connector-curvature="0"
       sodipodi:nodetypes="ccccccccccccccccccccc" />
    <path
       style="fill:none;stroke:#000000;stroke-width:0.26458332px;stroke-linecap:butt;stroke-linejoin:miter;stroke-opacity:1"
       d="m 133.36749,77.571718 -1.33634,11.225318 c 15.02874,-5.54762 31.72574,-6.9246 48.10851,-9.087162 l 0.80181,-13.363477 c -16.19449,2.844458 -33.33846,3.156949 -47.57398,11.225321 z"
       id="path12"
       inkscape:connector-curvature="0"
       sodipodi:nodetypes="ccccc" />
  </g>
</svg>
